<svg width="1073" height="128" viewBox="0 0 1073 128" fill="none" xmlns="http://www.w3.org/2000/svg">
<path fill-rule="evenodd" clip-rule="evenodd" d="M0 0H128V128H96.499C96.4997 127.833 96.5 127.667 96.5 127.5C96.5 92.1538 82.1731 63.5 64.5 63.5C46.8269 63.5 32.5 92.1538 32.5 127.5C32.5 127.667 32.5003 127.833 32.501 128H0V0Z" fill="#24282A"/>
<rect width="128" height="16" fill="#16ABFF"/>
<path d="M202.896 108.956C202.366 109.398 201.371 109.994 199.913 110.746C198.498 111.497 196.752 112.16 194.675 112.735C192.598 113.309 190.299 113.575 187.78 113.53C183.934 113.442 180.487 112.757 177.437 111.475C174.431 110.149 171.868 108.359 169.746 106.105C167.669 103.851 166.078 101.265 164.973 98.3477C163.868 95.4305 163.315 92.3144 163.315 88.9994C163.315 85.2866 163.868 81.8832 164.973 78.7892C166.122 75.6952 167.735 73.0211 169.812 70.7669C171.934 68.5127 174.453 66.7668 177.371 65.5292C180.288 64.2916 183.514 63.6728 187.05 63.6728C190.321 63.6728 193.216 64.1148 195.736 64.9988C198.255 65.8828 200.31 66.8331 201.902 67.8497L198.123 76.9328C197.018 76.093 195.537 75.2311 193.68 74.3471C191.868 73.4189 189.769 72.9548 187.382 72.9548C185.526 72.9548 183.735 73.3526 182.012 74.1482C180.332 74.8996 178.829 75.9825 177.503 77.3969C176.221 78.8113 175.205 80.4688 174.453 82.3694C173.702 84.2258 173.326 86.259 173.326 88.469C173.326 90.8116 173.658 92.9553 174.321 94.9001C175.028 96.8449 176.023 98.5245 177.304 99.9389C178.586 101.309 180.111 102.37 181.879 103.121C183.691 103.873 185.724 104.248 187.979 104.248C190.586 104.248 192.819 103.828 194.675 102.989C196.531 102.149 197.946 101.265 198.918 100.337L202.896 108.956ZM207.024 113L229.036 62.2805H229.566L251.578 113H240.44L226.384 77.3306L233.345 72.557L216.505 113H207.024ZM222.074 95.3642H236.727L240.108 103.453H219.091L222.074 95.3642ZM273.476 64.2032C277.498 64.2032 280.902 64.8883 283.686 66.2585C286.471 67.5845 288.592 69.4851 290.051 71.9603C291.51 74.3913 292.239 77.2864 292.239 80.6456C292.239 82.6346 291.93 84.6457 291.311 86.6789C290.736 88.6679 289.786 90.4801 288.46 92.1155C287.178 93.7509 285.432 95.0769 283.222 96.0935C281.056 97.0659 278.382 97.5521 275.2 97.5521H268.305V113H258.691V64.2032H273.476ZM275.134 88.2038C276.592 88.2038 277.808 87.9607 278.78 87.4745C279.752 86.9441 280.504 86.3032 281.034 85.5518C281.609 84.7562 282.007 83.9385 282.228 83.0987C282.493 82.2589 282.625 81.5296 282.625 80.9108C282.625 80.4246 282.537 79.7837 282.36 78.9881C282.228 78.1483 281.918 77.3085 281.432 76.4687C280.946 75.6289 280.194 74.9217 279.178 74.3471C278.205 73.7725 276.879 73.4852 275.2 73.4852H268.305V88.2038H275.134ZM326.897 76.0046C325.04 74.988 323.14 74.1482 321.195 73.4852C319.294 72.8222 317.504 72.4907 315.825 72.4907C313.747 72.4907 312.112 72.9106 310.918 73.7504C309.725 74.5902 309.128 75.8499 309.128 77.5295C309.128 78.6787 309.57 79.7174 310.454 80.6456C311.383 81.5296 312.554 82.3252 313.968 83.0324C315.427 83.7396 316.93 84.3805 318.477 84.9551C319.891 85.4855 321.283 86.1264 322.654 86.8778C324.068 87.585 325.328 88.4911 326.433 89.5961C327.538 90.6569 328.422 92.005 329.085 93.6404C329.748 95.2316 330.079 97.1985 330.079 99.5411C330.079 102.016 329.438 104.315 328.156 106.436C326.875 108.558 324.996 110.282 322.521 111.608C320.046 112.889 316.996 113.53 313.372 113.53C311.515 113.53 309.615 113.354 307.67 113C305.769 112.602 303.891 112.028 302.034 111.276C300.178 110.481 298.388 109.486 296.664 108.293L300.907 100.801C302.056 101.641 303.294 102.392 304.62 103.055C305.99 103.674 307.36 104.16 308.731 104.514C310.101 104.867 311.36 105.044 312.51 105.044C313.659 105.044 314.808 104.889 315.957 104.58C317.151 104.226 318.123 103.652 318.874 102.856C319.67 102.06 320.068 100.955 320.068 99.5411C320.068 98.5687 319.736 97.6847 319.073 96.8891C318.455 96.0935 317.593 95.3642 316.488 94.7012C315.427 94.0382 314.256 93.4636 312.974 92.9774C311.471 92.4028 309.924 91.7398 308.333 90.9884C306.742 90.237 305.239 89.3309 303.824 88.2701C302.454 87.1651 301.327 85.817 300.443 84.2258C299.603 82.5904 299.183 80.6014 299.183 78.2588C299.183 75.43 299.802 72.9769 301.04 70.8995C302.322 68.8221 304.112 67.1867 306.41 65.9933C308.708 64.7557 311.36 64.0706 314.366 63.938C318.3 63.938 321.482 64.4021 323.913 65.3303C326.388 66.2585 328.598 67.3635 330.543 68.6453L326.897 76.0046ZM336.179 64.2032H369.064V73.4852H357.196V113H347.583V73.4852H336.179V64.2032ZM373.675 88.6679C373.675 85.3087 374.316 82.1263 375.598 79.1207C376.88 76.1151 378.648 73.4631 380.902 71.1647C383.2 68.8221 385.852 66.9878 388.858 65.6618C391.863 64.3358 395.09 63.6728 398.538 63.6728C401.941 63.6728 405.145 64.3358 408.151 65.6618C411.157 66.9878 413.809 68.8221 416.107 71.1647C418.45 73.4631 420.262 76.1151 421.544 79.1207C422.87 82.1263 423.533 85.3087 423.533 88.6679C423.533 92.1155 422.87 95.3421 421.544 98.3477C420.262 101.353 418.45 104.005 416.107 106.304C413.809 108.558 411.157 110.326 408.151 111.608C405.145 112.889 401.941 113.53 398.538 113.53C395.09 113.53 391.863 112.889 388.858 111.608C385.852 110.326 383.2 108.558 380.902 106.304C378.648 104.005 376.88 101.353 375.598 98.3477C374.316 95.3421 373.675 92.1155 373.675 88.6679ZM383.62 88.6679C383.62 90.8337 383.996 92.8669 384.747 94.7675C385.543 96.6239 386.626 98.2814 387.996 99.74C389.41 101.154 391.024 102.259 392.836 103.055C394.692 103.851 396.703 104.248 398.869 104.248C400.946 104.248 402.869 103.851 404.637 103.055C406.449 102.259 408.018 101.154 409.344 99.74C410.67 98.2814 411.709 96.6239 412.461 94.7675C413.212 92.8669 413.588 90.8337 413.588 88.6679C413.588 86.4579 413.19 84.4026 412.394 82.502C411.643 80.6014 410.582 78.9439 409.212 77.5295C407.886 76.0709 406.317 74.9438 404.505 74.1482C402.692 73.3526 400.725 72.9548 398.604 72.9548C396.482 72.9548 394.515 73.3526 392.703 74.1482C390.891 74.9438 389.3 76.0709 387.93 77.5295C386.559 78.9439 385.499 80.6014 384.747 82.502C383.996 84.4026 383.62 86.4579 383.62 88.6679ZM476.809 114.989L439.813 81.5738L442.664 83.165L442.863 113H433.117V62.2805H433.515L469.715 95.5631L467.593 94.6349L467.394 64.2032H477.074V114.989H476.809ZM489.641 64.2032H522.923V73.4852H499.254V83.8943H520.205V93.1763H499.254V103.718H523.851V113H489.641V64.2032ZM555.358 113V64.2032H569.944C574.85 64.2032 579.027 64.9325 582.474 66.3911C585.922 67.8497 588.685 69.7945 590.762 72.2255C592.884 74.6565 594.431 77.3748 595.403 80.3804C596.375 83.386 596.862 86.4137 596.862 89.4635C596.862 93.0879 596.199 96.3587 594.873 99.2759C593.591 102.149 591.823 104.624 589.569 106.701C587.314 108.735 584.707 110.304 581.745 111.409C578.784 112.47 575.646 113 572.331 113H555.358ZM564.971 103.718H570.673C573.104 103.718 575.314 103.409 577.303 102.79C579.292 102.127 580.994 101.176 582.408 99.9389C583.867 98.7013 584.972 97.1543 585.723 95.2979C586.519 93.3973 586.917 91.2315 586.917 88.8005C586.917 85.6181 586.386 83.0324 585.325 81.0434C584.309 79.0102 583.027 77.4411 581.48 76.3361C579.977 75.2311 578.43 74.4797 576.839 74.0819C575.248 73.6399 573.9 73.4189 572.795 73.4189H564.971V103.718ZM604.982 84.0269H614.264V113H604.982V84.0269ZM604.783 73.7504C604.783 72.3802 605.314 71.2531 606.375 70.3691C607.48 69.4851 608.651 69.0431 609.889 69.0431C611.126 69.0431 612.253 69.4851 613.27 70.3691C614.331 71.2531 614.861 72.3802 614.861 73.7504C614.861 75.1206 614.331 76.2477 613.27 77.1317C612.253 77.9715 611.126 78.3914 609.889 78.3914C608.651 78.3914 607.48 77.9715 606.375 77.1317C605.314 76.2477 604.783 75.1206 604.783 73.7504ZM638.807 127.586C636.199 127.586 633.989 127.277 632.177 126.658C630.409 126.039 628.906 125.288 627.669 124.404C626.431 123.52 625.326 122.68 624.354 121.884L629.79 115.519C630.807 116.448 631.978 117.332 633.304 118.171C634.675 119.055 636.465 119.497 638.675 119.497C640.133 119.497 641.481 119.232 642.719 118.702C644.001 118.216 645.017 117.486 645.769 116.514C646.564 115.542 646.962 114.326 646.962 112.867V106.503L647.294 108.16C646.586 109.663 645.305 110.989 643.448 112.138C641.592 113.243 639.161 113.796 636.155 113.796C633.547 113.796 631.116 113.133 628.862 111.807C626.652 110.436 624.884 108.602 623.558 106.304C622.232 103.961 621.569 101.309 621.569 98.3477C621.569 95.2979 622.276 92.6017 623.691 90.2591C625.105 87.8723 626.94 85.9938 629.194 84.6236C631.448 83.2534 633.835 82.5683 636.354 82.5683C638.874 82.5683 641.039 82.944 642.852 83.6954C644.708 84.4026 646.1 85.2866 647.028 86.3474L646.697 87.2093L647.691 84.0269H656.244V113C656.244 115.829 655.449 118.326 653.857 120.492C652.266 122.702 650.145 124.426 647.493 125.663C644.885 126.945 641.99 127.586 638.807 127.586ZM630.918 98.0825C630.918 99.6295 631.271 101.022 631.978 102.259C632.686 103.497 633.636 104.469 634.829 105.177C636.067 105.884 637.437 106.237 638.94 106.237C640.222 106.237 641.349 106.083 642.321 105.773C643.338 105.42 644.222 104.933 644.973 104.315C645.769 103.652 646.432 102.834 646.962 101.862V94.7675C646.564 93.7951 645.968 92.9774 645.172 92.3144C644.376 91.6072 643.448 91.0768 642.387 90.7232C641.371 90.3254 640.222 90.1265 638.94 90.1265C637.437 90.1265 636.067 90.4801 634.829 91.1873C633.636 91.8503 632.686 92.7785 631.978 93.9719C631.271 95.1653 630.918 96.5355 630.918 98.0825ZM665.779 84.0269H675.061V113H665.779V84.0269ZM665.58 73.7504C665.58 72.3802 666.11 71.2531 667.171 70.3691C668.276 69.4851 669.448 69.0431 670.685 69.0431C671.923 69.0431 673.05 69.4851 674.066 70.3691C675.127 71.2531 675.658 72.3802 675.658 73.7504C675.658 75.1206 675.127 76.2477 674.066 77.1317C673.05 77.9715 671.923 78.3914 670.685 78.3914C669.448 78.3914 668.276 77.9715 667.171 77.1317C666.11 76.2477 665.58 75.1206 665.58 73.7504ZM687.338 71.2973H696.62V83.8943H703.648V91.121H696.62V113H687.338V91.121H682.83V83.8943H687.338V71.2973ZM722.912 113.796C720.216 113.796 717.763 113.265 715.553 112.204C713.387 111.099 711.663 109.42 710.381 107.166C709.099 104.911 708.458 102.038 708.458 98.5466C708.458 95.2758 709.121 92.447 710.447 90.0602C711.773 87.6734 713.519 85.8391 715.685 84.5573C717.851 83.2313 720.149 82.5683 722.58 82.5683C725.453 82.5683 727.619 83.0545 729.078 84.0269C730.581 84.9551 731.818 85.9938 732.791 87.143L732.393 88.2701L733.255 84.0269H741.874V113H732.592V106.701L733.321 108.69C733.233 108.69 732.967 108.956 732.525 109.486C732.083 109.972 731.42 110.569 730.536 111.276C729.697 111.939 728.636 112.514 727.354 113C726.116 113.53 724.636 113.796 722.912 113.796ZM725.564 106.237C726.669 106.237 727.663 106.083 728.547 105.773C729.431 105.42 730.205 104.933 730.868 104.315C731.531 103.652 732.105 102.834 732.592 101.862V94.7675C732.238 93.7951 731.708 92.9774 731 92.3144C730.293 91.6072 729.453 91.0768 728.481 90.7232C727.509 90.3254 726.426 90.1265 725.232 90.1265C723.906 90.1265 722.669 90.4801 721.52 91.1873C720.415 91.8503 719.531 92.7785 718.868 93.9719C718.205 95.1653 717.873 96.5355 717.873 98.0825C717.873 99.6295 718.227 101.022 718.934 102.259C719.641 103.497 720.569 104.469 721.718 105.177C722.912 105.884 724.194 106.237 725.564 106.237ZM751.438 60.6893H760.72V113H751.438V60.6893ZM819.42 76.0046C817.564 74.988 815.663 74.1482 813.719 73.4852C811.818 72.8222 810.028 72.4907 808.348 72.4907C806.271 72.4907 804.635 72.9106 803.442 73.7504C802.249 74.5902 801.652 75.8499 801.652 77.5295C801.652 78.6787 802.094 79.7174 802.978 80.6456C803.906 81.5296 805.077 82.3252 806.492 83.0324C807.95 83.7396 809.453 84.3805 811 84.9551C812.415 85.4855 813.807 86.1264 815.177 86.8778C816.592 87.585 817.851 88.4911 818.956 89.5961C820.061 90.6569 820.945 92.005 821.608 93.6404C822.271 95.2316 822.603 97.1985 822.603 99.5411C822.603 102.016 821.962 104.315 820.68 106.436C819.398 108.558 817.52 110.282 815.045 111.608C812.569 112.889 809.52 113.53 805.895 113.53C804.039 113.53 802.138 113.354 800.193 113C798.293 112.602 796.414 112.028 794.558 111.276C792.701 110.481 790.911 109.486 789.188 108.293L793.431 100.801C794.58 101.641 795.818 102.392 797.144 103.055C798.514 103.674 799.884 104.16 801.254 104.514C802.624 104.867 803.884 105.044 805.033 105.044C806.182 105.044 807.332 104.889 808.481 104.58C809.674 104.226 810.647 103.652 811.398 102.856C812.194 102.06 812.591 100.955 812.591 99.5411C812.591 98.5687 812.26 97.6847 811.597 96.8891C810.978 96.0935 810.116 95.3642 809.011 94.7012C807.95 94.0382 806.779 93.4636 805.497 92.9774C803.995 92.4028 802.448 91.7398 800.856 90.9884C799.265 90.237 797.762 89.3309 796.348 88.2701C794.978 87.1651 793.851 85.817 792.967 84.2258C792.127 82.5904 791.707 80.6014 791.707 78.2588C791.707 75.43 792.326 72.9769 793.563 70.8995C794.845 68.8221 796.635 67.1867 798.934 65.9933C801.232 64.7557 803.884 64.0706 806.89 63.938C810.823 63.938 814.006 64.4021 816.437 65.3303C818.912 66.2585 821.122 67.3635 823.067 68.6453L819.42 76.0046ZM828.239 98.1488C828.239 95.1874 828.924 92.5354 830.294 90.1928C831.708 87.8502 833.675 86.0159 836.195 84.6899C838.714 83.3197 841.609 82.6346 844.88 82.6346C848.195 82.6346 851.068 83.3197 853.499 84.6899C855.93 86.0159 857.786 87.8502 859.068 90.1928C860.394 92.5354 861.057 95.1874 861.057 98.1488C861.057 101.11 860.394 103.784 859.068 106.171C857.786 108.514 855.93 110.37 853.499 111.74C851.068 113.11 848.151 113.796 844.747 113.796C841.565 113.796 838.714 113.177 836.195 111.939C833.72 110.702 831.775 108.911 830.36 106.569C828.946 104.226 828.239 101.42 828.239 98.1488ZM837.587 98.2151C837.587 99.7179 837.896 101.088 838.515 102.326C839.134 103.519 839.974 104.469 841.035 105.177C842.095 105.884 843.289 106.237 844.615 106.237C846.073 106.237 847.333 105.884 848.394 105.177C849.455 104.469 850.272 103.519 850.847 102.326C851.422 101.088 851.709 99.7179 851.709 98.2151C851.709 96.6681 851.422 95.2979 850.847 94.1045C850.272 92.9111 849.455 91.9608 848.394 91.2536C847.333 90.5464 846.073 90.1928 844.615 90.1928C843.289 90.1928 842.095 90.5464 841.035 91.2536C839.974 91.9608 839.134 92.9111 838.515 94.1045C837.896 95.2979 837.587 96.6681 837.587 98.2151ZM868.369 60.6893H877.651V113H868.369V60.6893ZM896.559 114.392C893.951 114.392 891.763 113.597 889.995 112.005C888.227 110.37 887.299 108.271 887.211 105.707V84.0269H896.493V102.259C896.581 103.541 896.912 104.58 897.487 105.375C898.062 106.127 899.034 106.503 900.404 106.503C901.774 106.503 902.946 106.038 903.918 105.11C904.935 104.182 905.708 102.922 906.239 101.331C906.813 99.6958 907.101 97.8615 907.101 95.8283V84.0269H916.383V113H907.962L907.233 107.696L907.366 108.293C906.703 109.486 905.863 110.547 904.846 111.475C903.83 112.403 902.614 113.111 901.2 113.597C899.83 114.127 898.283 114.392 896.559 114.392ZM928.647 71.2973H937.929V83.8943H944.957V91.121H937.929V113H928.647V91.121H924.139V83.8943H928.647V71.2973ZM952.021 84.0269H961.303V113H952.021V84.0269ZM951.823 73.7504C951.823 72.3802 952.353 71.2531 953.414 70.3691C954.519 69.4851 955.69 69.0431 956.928 69.0431C958.165 69.0431 959.292 69.4851 960.309 70.3691C961.37 71.2531 961.9 72.3802 961.9 73.7504C961.9 75.1206 961.37 76.2477 960.309 77.1317C959.292 77.9715 958.165 78.3914 956.928 78.3914C955.69 78.3914 954.519 77.9715 953.414 77.1317C952.353 76.2477 951.823 75.1206 951.823 73.7504ZM968.608 98.1488C968.608 95.1874 969.293 92.5354 970.664 90.1928C972.078 87.8502 974.045 86.0159 976.564 84.6899C979.084 83.3197 981.979 82.6346 985.25 82.6346C988.565 82.6346 991.438 83.3197 993.869 84.6899C996.3 86.0159 998.156 87.8502 999.438 90.1928C1000.76 92.5354 1001.43 95.1874 1001.43 98.1488C1001.43 101.11 1000.76 103.784 999.438 106.171C998.156 108.514 996.3 110.37 993.869 111.74C991.438 113.11 988.52 113.796 985.117 113.796C981.935 113.796 979.084 113.177 976.564 111.939C974.089 110.702 972.144 108.911 970.73 106.569C969.316 104.226 968.608 101.42 968.608 98.1488ZM977.957 98.2151C977.957 99.7179 978.266 101.088 978.885 102.326C979.504 103.519 980.343 104.469 981.404 105.177C982.465 105.884 983.658 106.237 984.984 106.237C986.443 106.237 987.703 105.884 988.764 105.177C989.824 104.469 990.642 103.519 991.217 102.326C991.791 101.088 992.079 99.7179 992.079 98.2151C992.079 96.6681 991.791 95.2979 991.217 94.1045C990.642 92.9111 989.824 91.9608 988.764 91.2536C987.703 90.5464 986.443 90.1928 984.984 90.1928C983.658 90.1928 982.465 90.5464 981.404 91.2536C980.343 91.9608 979.504 92.9111 978.885 94.1045C978.266 95.2979 977.957 96.6681 977.957 98.2151ZM1017.16 84.0269L1017.89 89.1983L1017.76 88.7342C1018.77 86.922 1020.21 85.4634 1022.07 84.3584C1023.92 83.2092 1026.2 82.6346 1028.89 82.6346C1031.63 82.6346 1033.91 83.4523 1035.72 85.0877C1037.58 86.6789 1038.53 88.7563 1038.57 91.3199V113H1029.29V94.7675C1029.25 93.4857 1028.89 92.4691 1028.23 91.7177C1027.61 90.9221 1026.55 90.5243 1025.05 90.5243C1023.63 90.5243 1022.4 90.9884 1021.34 91.9166C1020.28 92.8448 1019.46 94.1045 1018.88 95.6957C1018.31 97.2869 1018.02 99.1212 1018.02 101.199V113H1008.74V84.0269H1017.16ZM1057.52 113.597C1055.13 113.597 1052.9 113.177 1050.82 112.337C1048.79 111.497 1047.07 110.326 1045.65 108.823L1049.5 103.718C1050.91 105 1052.22 105.928 1053.41 106.503C1054.65 107.033 1055.75 107.298 1056.72 107.298C1057.47 107.298 1058.14 107.232 1058.71 107.099C1059.33 106.922 1059.82 106.679 1060.17 106.37C1060.52 106.016 1060.7 105.574 1060.7 105.044C1060.7 104.293 1060.39 103.696 1059.77 103.254C1059.2 102.812 1058.45 102.458 1057.52 102.193C1056.59 101.884 1055.6 101.574 1054.54 101.265C1051.88 100.425 1049.96 99.2096 1048.77 97.6184C1047.62 95.983 1047.04 94.215 1047.04 92.3144C1047.04 90.8558 1047.42 89.3972 1048.17 87.9386C1048.97 86.4358 1050.2 85.1982 1051.88 84.2258C1053.61 83.2092 1055.82 82.7009 1058.51 82.7009C1060.94 82.7009 1063 82.944 1064.68 83.4302C1066.36 83.9164 1067.95 84.712 1069.45 85.817L1065.94 91.2536C1065.1 90.5906 1064.15 90.0381 1063.09 89.5961C1062.07 89.1099 1061.12 88.8447 1060.24 88.8005C1059.44 88.7563 1058.76 88.8447 1058.18 89.0657C1057.65 89.2867 1057.23 89.574 1056.92 89.9276C1056.61 90.2812 1056.46 90.6569 1056.46 91.0547C1056.41 91.8945 1056.72 92.5575 1057.39 93.0437C1058.09 93.5299 1058.98 93.9056 1060.04 94.1708C1061.1 94.436 1062.14 94.7454 1063.15 95.099C1064.57 95.541 1065.78 96.1377 1066.8 96.8891C1067.82 97.6405 1068.59 98.5466 1069.12 99.6074C1069.7 100.624 1069.98 101.862 1069.98 103.32C1069.98 105.088 1069.52 106.768 1068.59 108.359C1067.71 109.906 1066.34 111.166 1064.48 112.138C1062.67 113.111 1060.35 113.597 1057.52 113.597Z" fill="#24282A"/>
</svg>
