<svg width="1185" height="120" viewBox="0 0 1185 120" fill="none" xmlns="http://www.w3.org/2000/svg">
<path fill-rule="evenodd" clip-rule="evenodd" d="M0 0H160V120H120.624C120.625 119.792 120.625 119.584 120.625 119.375C120.625 75.1922 102.716 39.375 80.625 39.375C58.5336 39.375 40.625 75.1922 40.625 119.375C40.625 119.584 40.6254 119.792 40.6262 120H0V0Z" fill="#24282A"/>
<rect width="160" height="20" fill="#16ABFF"/>
<path d="M234.896 72.4557C234.366 72.8977 233.371 73.4944 231.913 74.2458C230.498 74.9972 228.752 75.6602 226.675 76.2348C224.598 76.8094 222.299 77.0746 219.78 77.0304C215.934 76.942 212.487 76.2569 209.437 74.9751C206.431 73.6491 203.868 71.859 201.746 69.6048C199.669 67.3506 198.078 64.7649 196.973 61.8477C195.868 58.9305 195.315 55.8144 195.315 52.4994C195.315 48.7866 195.868 45.3832 196.973 42.2892C198.122 39.1952 199.735 36.5211 201.812 34.2669C203.934 32.0127 206.453 30.2668 209.371 29.0292C212.288 27.7916 215.514 27.1728 219.05 27.1728C222.321 27.1728 225.216 27.6148 227.736 28.4988C230.255 29.3828 232.31 30.3331 233.902 31.3497L230.123 40.4328C229.018 39.593 227.537 38.7311 225.68 37.8471C223.868 36.9189 221.769 36.4548 219.382 36.4548C217.526 36.4548 215.735 36.8526 214.012 37.6482C212.332 38.3996 210.829 39.4825 209.503 40.8969C208.221 42.3113 207.205 43.9688 206.453 45.8694C205.702 47.7258 205.326 49.759 205.326 51.969C205.326 54.3116 205.658 56.4553 206.321 58.4001C207.028 60.3449 208.023 62.0245 209.304 63.4389C210.586 64.8091 212.111 65.8699 213.879 66.6213C215.691 67.3727 217.724 67.7484 219.979 67.7484C222.586 67.7484 224.819 67.3285 226.675 66.4887C228.531 65.6489 229.946 64.7649 230.918 63.8367L234.896 72.4557ZM239.024 76.5L261.036 25.7805H261.566L283.578 76.5H272.44L258.384 40.8306L265.345 36.057L248.505 76.5H239.024ZM254.074 58.8642H268.727L272.108 66.9528H251.091L254.074 58.8642ZM305.476 27.7032C309.498 27.7032 312.902 28.3883 315.686 29.7585C318.471 31.0845 320.592 32.9851 322.051 35.4603C323.51 37.8913 324.239 40.7864 324.239 44.1456C324.239 46.1346 323.93 48.1457 323.311 50.1789C322.736 52.1679 321.786 53.9801 320.46 55.6155C319.178 57.2509 317.432 58.5769 315.222 59.5935C313.056 60.5659 310.382 61.0521 307.2 61.0521H300.305V76.5H290.691V27.7032H305.476ZM307.134 51.7038C308.592 51.7038 309.808 51.4607 310.78 50.9745C311.752 50.4441 312.504 49.8032 313.034 49.0518C313.609 48.2562 314.007 47.4385 314.228 46.5987C314.493 45.7589 314.625 45.0296 314.625 44.4108C314.625 43.9246 314.537 43.2837 314.36 42.4881C314.228 41.6483 313.918 40.8085 313.432 39.9687C312.946 39.1289 312.194 38.4217 311.178 37.8471C310.205 37.2725 308.879 36.9852 307.2 36.9852H300.305V51.7038H307.134ZM358.897 39.5046C357.04 38.488 355.14 37.6482 353.195 36.9852C351.294 36.3222 349.504 35.9907 347.825 35.9907C345.747 35.9907 344.112 36.4106 342.918 37.2504C341.725 38.0902 341.128 39.3499 341.128 41.0295C341.128 42.1787 341.57 43.2174 342.454 44.1456C343.383 45.0296 344.554 45.8252 345.968 46.5324C347.427 47.2396 348.93 47.8805 350.477 48.4551C351.891 48.9855 353.283 49.6264 354.654 50.3778C356.068 51.085 357.328 51.9911 358.433 53.0961C359.538 54.1569 360.422 55.505 361.085 57.1404C361.748 58.7316 362.079 60.6985 362.079 63.0411C362.079 65.5163 361.438 67.8147 360.156 69.9363C358.875 72.0579 356.996 73.7817 354.521 75.1077C352.046 76.3895 348.996 77.0304 345.372 77.0304C343.515 77.0304 341.615 76.8536 339.67 76.5C337.769 76.1022 335.891 75.5276 334.034 74.7762C332.178 73.9806 330.388 72.9861 328.664 71.7927L332.907 64.3008C334.056 65.1406 335.294 65.892 336.62 66.555C337.99 67.1738 339.36 67.66 340.731 68.0136C342.101 68.3672 343.36 68.544 344.51 68.544C345.659 68.544 346.808 68.3893 347.957 68.0799C349.151 67.7263 350.123 67.1517 350.874 66.3561C351.67 65.5605 352.068 64.4555 352.068 63.0411C352.068 62.0687 351.736 61.1847 351.073 60.3891C350.455 59.5935 349.593 58.8642 348.488 58.2012C347.427 57.5382 346.256 56.9636 344.974 56.4774C343.471 55.9028 341.924 55.2398 340.333 54.4884C338.742 53.737 337.239 52.8309 335.824 51.7701C334.454 50.6651 333.327 49.317 332.443 47.7258C331.603 46.0904 331.183 44.1014 331.183 41.7588C331.183 38.93 331.802 36.4769 333.04 34.3995C334.322 32.3221 336.112 30.6867 338.41 29.4933C340.708 28.2557 343.36 27.5706 346.366 27.438C350.3 27.438 353.482 27.9021 355.913 28.8303C358.388 29.7585 360.598 30.8635 362.543 32.1453L358.897 39.5046ZM368.179 27.7032H401.064V36.9852H389.196V76.5H379.583V36.9852H368.179V27.7032ZM405.675 52.1679C405.675 48.8087 406.316 45.6263 407.598 42.6207C408.88 39.6151 410.648 36.9631 412.902 34.6647C415.2 32.3221 417.852 30.4878 420.858 29.1618C423.863 27.8358 427.09 27.1728 430.538 27.1728C433.941 27.1728 437.145 27.8358 440.151 29.1618C443.157 30.4878 445.809 32.3221 448.107 34.6647C450.45 36.9631 452.262 39.6151 453.544 42.6207C454.87 45.6263 455.533 48.8087 455.533 52.1679C455.533 55.6155 454.87 58.8421 453.544 61.8477C452.262 64.8533 450.45 67.5053 448.107 69.8037C445.809 72.0579 443.157 73.8259 440.151 75.1077C437.145 76.3895 433.941 77.0304 430.538 77.0304C427.09 77.0304 423.863 76.3895 420.858 75.1077C417.852 73.8259 415.2 72.0579 412.902 69.8037C410.648 67.5053 408.88 64.8533 407.598 61.8477C406.316 58.8421 405.675 55.6155 405.675 52.1679ZM415.62 52.1679C415.62 54.3337 415.996 56.3669 416.747 58.2675C417.543 60.1239 418.626 61.7814 419.996 63.24C421.41 64.6544 423.024 65.7594 424.836 66.555C426.692 67.3506 428.703 67.7484 430.869 67.7484C432.946 67.7484 434.869 67.3506 436.637 66.555C438.449 65.7594 440.018 64.6544 441.344 63.24C442.67 61.7814 443.709 60.1239 444.461 58.2675C445.212 56.3669 445.588 54.3337 445.588 52.1679C445.588 49.9579 445.19 47.9026 444.394 46.002C443.643 44.1014 442.582 42.4439 441.212 41.0295C439.886 39.5709 438.317 38.4438 436.505 37.6482C434.692 36.8526 432.725 36.4548 430.604 36.4548C428.482 36.4548 426.515 36.8526 424.703 37.6482C422.891 38.4438 421.3 39.5709 419.93 41.0295C418.559 42.4439 417.499 44.1014 416.747 46.002C415.996 47.9026 415.62 49.9579 415.62 52.1679ZM508.809 78.489L471.813 45.0738L474.664 46.665L474.863 76.5H465.117V25.7805H465.515L501.715 59.0631L499.593 58.1349L499.394 27.7032H509.074V78.489H508.809ZM521.641 27.7032H554.923V36.9852H531.254V47.3943H552.205V56.6763H531.254V67.218H555.851V76.5H521.641V27.7032ZM587.358 76.5V27.7032H601.944C606.85 27.7032 611.027 28.4325 614.474 29.8911C617.922 31.3497 620.685 33.2945 622.762 35.7255C624.884 38.1565 626.431 40.8748 627.403 43.8804C628.375 46.886 628.862 49.9137 628.862 52.9635C628.862 56.5879 628.199 59.8587 626.873 62.7759C625.591 65.6489 623.823 68.1241 621.569 70.2015C619.314 72.2347 616.707 73.8038 613.745 74.9088C610.784 75.9696 607.646 76.5 604.331 76.5H587.358ZM596.971 67.218H602.673C605.104 67.218 607.314 66.9086 609.303 66.2898C611.292 65.6268 612.994 64.6765 614.408 63.4389C615.867 62.2013 616.972 60.6543 617.723 58.7979C618.519 56.8973 618.917 54.7315 618.917 52.3005C618.917 49.1181 618.386 46.5324 617.325 44.5434C616.309 42.5102 615.027 40.9411 613.48 39.8361C611.977 38.7311 610.43 37.9797 608.839 37.5819C607.248 37.1399 605.9 36.9189 604.795 36.9189H596.971V67.218ZM636.982 47.5269H646.264V76.5H636.982V47.5269ZM636.783 37.2504C636.783 35.8802 637.314 34.7531 638.375 33.8691C639.48 32.9851 640.651 32.5431 641.889 32.5431C643.126 32.5431 644.253 32.9851 645.27 33.8691C646.331 34.7531 646.861 35.8802 646.861 37.2504C646.861 38.6206 646.331 39.7477 645.27 40.6317C644.253 41.4715 643.126 41.8914 641.889 41.8914C640.651 41.8914 639.48 41.4715 638.375 40.6317C637.314 39.7477 636.783 38.6206 636.783 37.2504ZM670.807 91.086C668.199 91.086 665.989 90.7766 664.177 90.1578C662.409 89.539 660.906 88.7876 659.669 87.9036C658.431 87.0196 657.326 86.1798 656.354 85.3842L661.79 79.0194C662.807 79.9476 663.978 80.8316 665.304 81.6714C666.675 82.5554 668.465 82.9974 670.675 82.9974C672.133 82.9974 673.481 82.7322 674.719 82.2018C676.001 81.7156 677.017 80.9863 677.769 80.0139C678.564 79.0415 678.962 77.826 678.962 76.3674V70.0026L679.294 71.6601C678.586 73.1629 677.305 74.4889 675.448 75.6381C673.592 76.7431 671.161 77.2956 668.155 77.2956C665.547 77.2956 663.116 76.6326 660.862 75.3066C658.652 73.9364 656.884 72.1021 655.558 69.8037C654.232 67.4611 653.569 64.8091 653.569 61.8477C653.569 58.7979 654.276 56.1017 655.691 53.7591C657.105 51.3723 658.94 49.4938 661.194 48.1236C663.448 46.7534 665.835 46.0683 668.354 46.0683C670.874 46.0683 673.039 46.444 674.852 47.1954C676.708 47.9026 678.1 48.7866 679.028 49.8474L678.697 50.7093L679.691 47.5269H688.244V76.5C688.244 79.3288 687.449 81.8261 685.857 83.9919C684.266 86.2019 682.145 87.9257 679.493 89.1633C676.885 90.4451 673.99 91.086 670.807 91.086ZM662.918 61.5825C662.918 63.1295 663.271 64.5218 663.978 65.7594C664.686 66.997 665.636 67.9694 666.829 68.6766C668.067 69.3838 669.437 69.7374 670.94 69.7374C672.222 69.7374 673.349 69.5827 674.321 69.2733C675.338 68.9197 676.222 68.4335 676.973 67.8147C677.769 67.1517 678.432 66.334 678.962 65.3616V58.2675C678.564 57.2951 677.968 56.4774 677.172 55.8144C676.376 55.1072 675.448 54.5768 674.387 54.2232C673.371 53.8254 672.222 53.6265 670.94 53.6265C669.437 53.6265 668.067 53.9801 666.829 54.6873C665.636 55.3503 664.686 56.2785 663.978 57.4719C663.271 58.6653 662.918 60.0355 662.918 61.5825ZM697.779 47.5269H707.061V76.5H697.779V47.5269ZM697.58 37.2504C697.58 35.8802 698.11 34.7531 699.171 33.8691C700.276 32.9851 701.448 32.5431 702.685 32.5431C703.923 32.5431 705.05 32.9851 706.066 33.8691C707.127 34.7531 707.658 35.8802 707.658 37.2504C707.658 38.6206 707.127 39.7477 706.066 40.6317C705.05 41.4715 703.923 41.8914 702.685 41.8914C701.448 41.8914 700.276 41.4715 699.171 40.6317C698.11 39.7477 697.58 38.6206 697.58 37.2504ZM719.338 34.7973H728.62V47.3943H735.648V54.621H728.62V76.5H719.338V54.621H714.83V47.3943H719.338V34.7973ZM754.912 77.2956C752.216 77.2956 749.763 76.7652 747.553 75.7044C745.387 74.5994 743.663 72.9198 742.381 70.6656C741.099 68.4114 740.458 65.5384 740.458 62.0466C740.458 58.7758 741.121 55.947 742.447 53.5602C743.773 51.1734 745.519 49.3391 747.685 48.0573C749.851 46.7313 752.149 46.0683 754.58 46.0683C757.453 46.0683 759.619 46.5545 761.078 47.5269C762.581 48.4551 763.818 49.4938 764.791 50.643L764.393 51.7701L765.255 47.5269H773.874V76.5H764.592V70.2015L765.321 72.1905C765.233 72.1905 764.967 72.4557 764.525 72.9861C764.083 73.4723 763.42 74.069 762.536 74.7762C761.697 75.4392 760.636 76.0138 759.354 76.5C758.116 77.0304 756.636 77.2956 754.912 77.2956ZM757.564 69.7374C758.669 69.7374 759.663 69.5827 760.547 69.2733C761.431 68.9197 762.205 68.4335 762.868 67.8147C763.531 67.1517 764.105 66.334 764.592 65.3616V58.2675C764.238 57.2951 763.708 56.4774 763 55.8144C762.293 55.1072 761.453 54.5768 760.481 54.2232C759.509 53.8254 758.426 53.6265 757.232 53.6265C755.906 53.6265 754.669 53.9801 753.52 54.6873C752.415 55.3503 751.531 56.2785 750.868 57.4719C750.205 58.6653 749.873 60.0355 749.873 61.5825C749.873 63.1295 750.227 64.5218 750.934 65.7594C751.641 66.997 752.569 67.9694 753.718 68.6766C754.912 69.3838 756.194 69.7374 757.564 69.7374ZM783.438 24.1893H792.72V76.5H783.438V24.1893ZM851.42 39.5046C849.564 38.488 847.663 37.6482 845.719 36.9852C843.818 36.3222 842.028 35.9907 840.348 35.9907C838.271 35.9907 836.635 36.4106 835.442 37.2504C834.249 38.0902 833.652 39.3499 833.652 41.0295C833.652 42.1787 834.094 43.2174 834.978 44.1456C835.906 45.0296 837.077 45.8252 838.492 46.5324C839.95 47.2396 841.453 47.8805 843 48.4551C844.415 48.9855 845.807 49.6264 847.177 50.3778C848.592 51.085 849.851 51.9911 850.956 53.0961C852.061 54.1569 852.945 55.505 853.608 57.1404C854.271 58.7316 854.603 60.6985 854.603 63.0411C854.603 65.5163 853.962 67.8147 852.68 69.9363C851.398 72.0579 849.52 73.7817 847.045 75.1077C844.569 76.3895 841.52 77.0304 837.895 77.0304C836.039 77.0304 834.138 76.8536 832.193 76.5C830.293 76.1022 828.414 75.5276 826.558 74.7762C824.701 73.9806 822.911 72.9861 821.188 71.7927L825.431 64.3008C826.58 65.1406 827.818 65.892 829.144 66.555C830.514 67.1738 831.884 67.66 833.254 68.0136C834.624 68.3672 835.884 68.544 837.033 68.544C838.182 68.544 839.332 68.3893 840.481 68.0799C841.674 67.7263 842.647 67.1517 843.398 66.3561C844.194 65.5605 844.591 64.4555 844.591 63.0411C844.591 62.0687 844.26 61.1847 843.597 60.3891C842.978 59.5935 842.116 58.8642 841.011 58.2012C839.95 57.5382 838.779 56.9636 837.497 56.4774C835.995 55.9028 834.448 55.2398 832.856 54.4884C831.265 53.737 829.762 52.8309 828.348 51.7701C826.978 50.6651 825.851 49.317 824.967 47.7258C824.127 46.0904 823.707 44.1014 823.707 41.7588C823.707 38.93 824.326 36.4769 825.563 34.3995C826.845 32.3221 828.635 30.6867 830.934 29.4933C833.232 28.2557 835.884 27.5706 838.89 27.438C842.823 27.438 846.006 27.9021 848.437 28.8303C850.912 29.7585 853.122 30.8635 855.067 32.1453L851.42 39.5046ZM860.239 61.6488C860.239 58.6874 860.924 56.0354 862.294 53.6928C863.708 51.3502 865.675 49.5159 868.195 48.1899C870.714 46.8197 873.609 46.1346 876.88 46.1346C880.195 46.1346 883.068 46.8197 885.499 48.1899C887.93 49.5159 889.786 51.3502 891.068 53.6928C892.394 56.0354 893.057 58.6874 893.057 61.6488C893.057 64.6102 892.394 67.2843 891.068 69.6711C889.786 72.0137 887.93 73.8701 885.499 75.2403C883.068 76.6105 880.151 77.2956 876.747 77.2956C873.565 77.2956 870.714 76.6768 868.195 75.4392C865.72 74.2016 863.775 72.4115 862.36 70.0689C860.946 67.7263 860.239 64.9196 860.239 61.6488ZM869.587 61.7151C869.587 63.2179 869.896 64.5881 870.515 65.8257C871.134 67.0191 871.974 67.9694 873.035 68.6766C874.095 69.3838 875.289 69.7374 876.615 69.7374C878.073 69.7374 879.333 69.3838 880.394 68.6766C881.455 67.9694 882.272 67.0191 882.847 65.8257C883.422 64.5881 883.709 63.2179 883.709 61.7151C883.709 60.1681 883.422 58.7979 882.847 57.6045C882.272 56.4111 881.455 55.4608 880.394 54.7536C879.333 54.0464 878.073 53.6928 876.615 53.6928C875.289 53.6928 874.095 54.0464 873.035 54.7536C871.974 55.4608 871.134 56.4111 870.515 57.6045C869.896 58.7979 869.587 60.1681 869.587 61.7151ZM900.369 24.1893H909.651V76.5H900.369V24.1893ZM928.559 77.8923C925.951 77.8923 923.763 77.0967 921.995 75.5055C920.227 73.8701 919.299 71.7706 919.211 69.207V47.5269H928.493V65.7594C928.581 67.0412 928.912 68.0799 929.487 68.8755C930.062 69.6269 931.034 70.0026 932.404 70.0026C933.774 70.0026 934.946 69.5385 935.918 68.6103C936.935 67.6821 937.708 66.4224 938.239 64.8312C938.813 63.1958 939.101 61.3615 939.101 59.3283V47.5269H948.383V76.5H939.962L939.233 71.196L939.366 71.7927C938.703 72.9861 937.863 74.0469 936.846 74.9751C935.83 75.9033 934.614 76.6105 933.2 77.0967C931.83 77.6271 930.283 77.8923 928.559 77.8923ZM960.647 34.7973H969.929V47.3943H976.957V54.621H969.929V76.5H960.647V54.621H956.139V47.3943H960.647V34.7973ZM984.021 47.5269H993.303V76.5H984.021V47.5269ZM983.823 37.2504C983.823 35.8802 984.353 34.7531 985.414 33.8691C986.519 32.9851 987.69 32.5431 988.928 32.5431C990.165 32.5431 991.292 32.9851 992.309 33.8691C993.37 34.7531 993.9 35.8802 993.9 37.2504C993.9 38.6206 993.37 39.7477 992.309 40.6317C991.292 41.4715 990.165 41.8914 988.928 41.8914C987.69 41.8914 986.519 41.4715 985.414 40.6317C984.353 39.7477 983.823 38.6206 983.823 37.2504ZM1000.61 61.6488C1000.61 58.6874 1001.29 56.0354 1002.66 53.6928C1004.08 51.3502 1006.04 49.5159 1008.56 48.1899C1011.08 46.8197 1013.98 46.1346 1017.25 46.1346C1020.56 46.1346 1023.44 46.8197 1025.87 48.1899C1028.3 49.5159 1030.16 51.3502 1031.44 53.6928C1032.76 56.0354 1033.43 58.6874 1033.43 61.6488C1033.43 64.6102 1032.76 67.2843 1031.44 69.6711C1030.16 72.0137 1028.3 73.8701 1025.87 75.2403C1023.44 76.6105 1020.52 77.2956 1017.12 77.2956C1013.93 77.2956 1011.08 76.6768 1008.56 75.4392C1006.09 74.2016 1004.14 72.4115 1002.73 70.0689C1001.32 67.7263 1000.61 64.9196 1000.61 61.6488ZM1009.96 61.7151C1009.96 63.2179 1010.27 64.5881 1010.88 65.8257C1011.5 67.0191 1012.34 67.9694 1013.4 68.6766C1014.47 69.3838 1015.66 69.7374 1016.98 69.7374C1018.44 69.7374 1019.7 69.3838 1020.76 68.6766C1021.82 67.9694 1022.64 67.0191 1023.22 65.8257C1023.79 64.5881 1024.08 63.2179 1024.08 61.7151C1024.08 60.1681 1023.79 58.7979 1023.22 57.6045C1022.64 56.4111 1021.82 55.4608 1020.76 54.7536C1019.7 54.0464 1018.44 53.6928 1016.98 53.6928C1015.66 53.6928 1014.47 54.0464 1013.4 54.7536C1012.34 55.4608 1011.5 56.4111 1010.88 57.6045C1010.27 58.7979 1009.96 60.1681 1009.96 61.7151ZM1049.16 47.5269L1049.89 52.6983L1049.76 52.2342C1050.77 50.422 1052.21 48.9634 1054.07 47.8584C1055.92 46.7092 1058.2 46.1346 1060.89 46.1346C1063.63 46.1346 1065.91 46.9523 1067.72 48.5877C1069.58 50.1789 1070.53 52.2563 1070.57 54.8199V76.5H1061.29V58.2675C1061.25 56.9857 1060.89 55.9691 1060.23 55.2177C1059.61 54.4221 1058.55 54.0243 1057.05 54.0243C1055.63 54.0243 1054.4 54.4884 1053.34 55.4166C1052.28 56.3448 1051.46 57.6045 1050.88 59.1957C1050.31 60.7869 1050.02 62.6212 1050.02 64.6986V76.5H1040.74V47.5269H1049.16ZM1089.52 77.0967C1087.13 77.0967 1084.9 76.6768 1082.82 75.837C1080.79 74.9972 1079.07 73.8259 1077.65 72.3231L1081.5 67.218C1082.91 68.4998 1084.22 69.428 1085.41 70.0026C1086.65 70.533 1087.75 70.7982 1088.72 70.7982C1089.47 70.7982 1090.14 70.7319 1090.71 70.5993C1091.33 70.4225 1091.82 70.1794 1092.17 69.87C1092.52 69.5164 1092.7 69.0744 1092.7 68.544C1092.7 67.7926 1092.39 67.1959 1091.77 66.7539C1091.2 66.3119 1090.45 65.9583 1089.52 65.6931C1088.59 65.3837 1087.6 65.0743 1086.54 64.7649C1083.88 63.9251 1081.96 62.7096 1080.77 61.1184C1079.62 59.483 1079.04 57.715 1079.04 55.8144C1079.04 54.3558 1079.42 52.8972 1080.17 51.4386C1080.97 49.9358 1082.2 48.6982 1083.88 47.7258C1085.61 46.7092 1087.82 46.2009 1090.51 46.2009C1092.94 46.2009 1095 46.444 1096.68 46.9302C1098.36 47.4164 1099.95 48.212 1101.45 49.317L1097.94 54.7536C1097.1 54.0906 1096.15 53.5381 1095.09 53.0961C1094.07 52.6099 1093.12 52.3447 1092.24 52.3005C1091.44 52.2563 1090.76 52.3447 1090.18 52.5657C1089.65 52.7867 1089.23 53.074 1088.92 53.4276C1088.61 53.7812 1088.46 54.1569 1088.46 54.5547C1088.41 55.3945 1088.72 56.0575 1089.39 56.5437C1090.09 57.0299 1090.98 57.4056 1092.04 57.6708C1093.1 57.936 1094.14 58.2454 1095.15 58.599C1096.57 59.041 1097.78 59.6377 1098.8 60.3891C1099.82 61.1405 1100.59 62.0466 1101.12 63.1074C1101.7 64.124 1101.98 65.3616 1101.98 66.8202C1101.98 68.5882 1101.52 70.2678 1100.59 71.859C1099.71 73.406 1098.34 74.6657 1096.48 75.6381C1094.67 76.6105 1092.35 77.0967 1089.52 77.0967Z" fill="#24282A"/>
</svg>
